# xmcd CD database file
#
# Track frame offsets:
#	150
#	10820
#	23360
#	36940
#	48007
#	63376
#	74013
#	86227
#	96196
#	110952
#	121790
#	136800
#
# Disc length: 2014 seconds
#
# Revision: 0
# Processed by: cddbd v1.5.2PL0 Copyright (c) Steve Scherf et al.
# Submitted via: CDex 1.72
#
DISCID=9d07dc0c
DTITLE=Embraceable You CD 1 OF 3 - Various Artists
DYEAR=2002
DGENRE=Jazz
TTITLE0=For Sentimental Reasons
TTITLE1=When A Woman Loves A Man
TTITLE2=My One And Only Love
TTITLE3=You're A Sweetheart
TTITLE4=You're Just In Love
TTITLE5=Embraceable You
TTITLE6=I Love You Because
TTITLE7=I'll Get By
TTITLE8=I'm In The Mood For Love
TTITLE9=A True True Love
TTITLE10=More Than You Know
TTITLE11=Unforgettable
EXTD=YEAR: 2002
EXTT0=
EXTT1=
EXTT2=
EXTT3=
EXTT4=
EXTT5=
EXTT6=
EXTT7=
EXTT8=
EXTT9=
EXTT10=
EXTT11=
PLAYORDER=
